<mxfile host="app.diagrams.net" agent="Mozilla/5.0 (Windows NT 10.0; Win64; x64) AppleWebKit/537.36 (KHTML, like Gecko) Chrome/140.0.0.0 Safari/537.36 Edg/140.0.0.0" version="28.2.5">
  <diagram name="Page-1" id="3matBruSAcgj6_KvUqIw">
    <mxGraphModel dx="2297" dy="1154" grid="1" gridSize="10" guides="1" tooltips="1" connect="1" arrows="1" fold="1" page="1" pageScale="1" pageWidth="1100" pageHeight="850" math="0" shadow="0">
      <root>
        <mxCell id="0" />
        <mxCell id="1" parent="0" />
        <mxCell id="Lt6OHq9H0NEp2cN9ZZlA-55" style="edgeStyle=orthogonalEdgeStyle;rounded=0;orthogonalLoop=1;jettySize=auto;html=1;exitX=0.75;exitY=1;exitDx=0;exitDy=0;entryX=0.5;entryY=0;entryDx=0;entryDy=0;" parent="1" target="Lt6OHq9H0NEp2cN9ZZlA-32" edge="1">
          <mxGeometry relative="1" as="geometry">
            <Array as="points">
              <mxPoint x="170" y="510" />
              <mxPoint x="170" y="640" />
              <mxPoint x="470" y="640" />
            </Array>
            <mxPoint x="200" y="510" as="sourcePoint" />
          </mxGeometry>
        </mxCell>
        <mxCell id="Lt6OHq9H0NEp2cN9ZZlA-50" style="edgeStyle=orthogonalEdgeStyle;rounded=0;orthogonalLoop=1;jettySize=auto;html=1;exitX=0.5;exitY=1;exitDx=0;exitDy=0;entryX=0.5;entryY=0;entryDx=0;entryDy=0;" parent="1" target="Lt6OHq9H0NEp2cN9ZZlA-35" edge="1">
          <mxGeometry relative="1" as="geometry">
            <mxPoint x="320" y="510" as="sourcePoint" />
          </mxGeometry>
        </mxCell>
        <mxCell id="Lt6OHq9H0NEp2cN9ZZlA-51" style="edgeStyle=orthogonalEdgeStyle;rounded=0;orthogonalLoop=1;jettySize=auto;html=1;exitX=0.5;exitY=1;exitDx=0;exitDy=0;entryX=0.5;entryY=0;entryDx=0;entryDy=0;" parent="1" target="Lt6OHq9H0NEp2cN9ZZlA-34" edge="1">
          <mxGeometry relative="1" as="geometry">
            <mxPoint x="320" y="510" as="sourcePoint" />
          </mxGeometry>
        </mxCell>
        <mxCell id="Lt6OHq9H0NEp2cN9ZZlA-56" style="edgeStyle=orthogonalEdgeStyle;rounded=0;orthogonalLoop=1;jettySize=auto;html=1;exitX=0;exitY=0.5;exitDx=0;exitDy=0;entryX=0.5;entryY=0;entryDx=0;entryDy=0;" parent="1" source="Lt6OHq9H0NEp2cN9ZZlA-12" target="Lt6OHq9H0NEp2cN9ZZlA-13" edge="1">
          <mxGeometry relative="1" as="geometry" />
        </mxCell>
        <mxCell id="Lt6OHq9H0NEp2cN9ZZlA-12" value="APIM (Premium Tier)" style="rounded=0;whiteSpace=wrap;html=1;" parent="1" vertex="1">
          <mxGeometry x="323" y="160" width="120" height="60" as="geometry" />
        </mxCell>
        <mxCell id="Lt6OHq9H0NEp2cN9ZZlA-57" style="edgeStyle=orthogonalEdgeStyle;rounded=0;orthogonalLoop=1;jettySize=auto;html=1;exitX=0.5;exitY=1;exitDx=0;exitDy=0;entryX=0.5;entryY=0;entryDx=0;entryDy=0;" parent="1" source="Lt6OHq9H0NEp2cN9ZZlA-13" target="Lt6OHq9H0NEp2cN9ZZlA-14" edge="1">
          <mxGeometry relative="1" as="geometry" />
        </mxCell>
        <mxCell id="Lt6OHq9H0NEp2cN9ZZlA-13" value="CAD (BU)" style="rounded=0;whiteSpace=wrap;html=1;" parent="1" vertex="1">
          <mxGeometry x="243" y="280" width="120" height="60" as="geometry" />
        </mxCell>
        <mxCell id="Lt6OHq9H0NEp2cN9ZZlA-58" style="edgeStyle=orthogonalEdgeStyle;rounded=0;orthogonalLoop=1;jettySize=auto;html=1;exitX=0;exitY=0.5;exitDx=0;exitDy=0;entryX=0.5;entryY=0;entryDx=0;entryDy=0;" parent="1" source="Lt6OHq9H0NEp2cN9ZZlA-14" target="Lt6OHq9H0NEp2cN9ZZlA-27" edge="1">
          <mxGeometry relative="1" as="geometry" />
        </mxCell>
        <mxCell id="Lt6OHq9H0NEp2cN9ZZlA-59" style="edgeStyle=orthogonalEdgeStyle;rounded=0;orthogonalLoop=1;jettySize=auto;html=1;exitX=0.5;exitY=1;exitDx=0;exitDy=0;entryX=0.5;entryY=0;entryDx=0;entryDy=0;" parent="1" source="Lt6OHq9H0NEp2cN9ZZlA-14" target="Lt6OHq9H0NEp2cN9ZZlA-28" edge="1">
          <mxGeometry relative="1" as="geometry" />
        </mxCell>
        <mxCell id="Lt6OHq9H0NEp2cN9ZZlA-60" style="edgeStyle=orthogonalEdgeStyle;rounded=0;orthogonalLoop=1;jettySize=auto;html=1;exitX=1;exitY=0.5;exitDx=0;exitDy=0;entryX=0.5;entryY=0;entryDx=0;entryDy=0;" parent="1" source="Lt6OHq9H0NEp2cN9ZZlA-14" target="Lt6OHq9H0NEp2cN9ZZlA-29" edge="1">
          <mxGeometry relative="1" as="geometry" />
        </mxCell>
        <mxCell id="Lt6OHq9H0NEp2cN9ZZlA-14" value="Product CAD" style="rounded=0;whiteSpace=wrap;html=1;" parent="1" vertex="1">
          <mxGeometry x="243" y="380" width="120" height="60" as="geometry" />
        </mxCell>
        <mxCell id="Lt6OHq9H0NEp2cN9ZZlA-27" value="Schedules" style="rounded=0;whiteSpace=wrap;html=1;" parent="1" vertex="1">
          <mxGeometry x="88" y="490" width="120" height="60" as="geometry" />
        </mxCell>
        <mxCell id="Lt6OHq9H0NEp2cN9ZZlA-28" value="Crew" style="rounded=0;whiteSpace=wrap;html=1;" parent="1" vertex="1">
          <mxGeometry x="243" y="490" width="120" height="60" as="geometry" />
        </mxCell>
        <mxCell id="Lt6OHq9H0NEp2cN9ZZlA-29" value="GTB" style="rounded=0;whiteSpace=wrap;html=1;" parent="1" vertex="1">
          <mxGeometry x="398" y="490" width="120" height="60" as="geometry" />
        </mxCell>
        <mxCell id="Lt6OHq9H0NEp2cN9ZZlA-67" value="api.org.com/cad/schedule" style="text;html=1;align=center;verticalAlign=middle;whiteSpace=wrap;rounded=0;" parent="1" vertex="1">
          <mxGeometry x="33" y="270" width="210" height="30" as="geometry" />
        </mxCell>
        <mxCell id="Lt6OHq9H0NEp2cN9ZZlA-68" value="api.org.com/cad/crew" style="text;html=1;align=center;verticalAlign=middle;whiteSpace=wrap;rounded=0;" parent="1" vertex="1">
          <mxGeometry x="37" y="296" width="180" height="30" as="geometry" />
        </mxCell>
        <mxCell id="Lt6OHq9H0NEp2cN9ZZlA-69" value="api.org.com/cad/gtb" style="text;html=1;align=center;verticalAlign=middle;whiteSpace=wrap;rounded=0;" parent="1" vertex="1">
          <mxGeometry x="34" y="320" width="180" height="30" as="geometry" />
        </mxCell>
        <mxCell id="Lt6OHq9H0NEp2cN9ZZlA-73" value="api.org.com" style="text;html=1;align=center;verticalAlign=middle;whiteSpace=wrap;rounded=0;" parent="1" vertex="1">
          <mxGeometry x="323" y="120" width="120" height="30" as="geometry" />
        </mxCell>
        <mxCell id="Lt6OHq9H0NEp2cN9ZZlA-74" style="edgeStyle=orthogonalEdgeStyle;rounded=0;orthogonalLoop=1;jettySize=auto;html=1;exitX=0;exitY=0.5;exitDx=0;exitDy=0;entryX=0.5;entryY=0;entryDx=0;entryDy=0;" parent="1" source="Lt6OHq9H0NEp2cN9ZZlA-75" target="Lt6OHq9H0NEp2cN9ZZlA-77" edge="1">
          <mxGeometry relative="1" as="geometry" />
        </mxCell>
        <mxCell id="Lt6OHq9H0NEp2cN9ZZlA-75" value="APIM (Premium Tier)" style="rounded=0;whiteSpace=wrap;html=1;" parent="1" vertex="1">
          <mxGeometry x="873" y="160" width="120" height="60" as="geometry" />
        </mxCell>
        <mxCell id="Lt6OHq9H0NEp2cN9ZZlA-76" style="edgeStyle=orthogonalEdgeStyle;rounded=0;orthogonalLoop=1;jettySize=auto;html=1;exitX=0.5;exitY=1;exitDx=0;exitDy=0;entryX=0.5;entryY=0;entryDx=0;entryDy=0;" parent="1" source="Lt6OHq9H0NEp2cN9ZZlA-77" target="Lt6OHq9H0NEp2cN9ZZlA-81" edge="1">
          <mxGeometry relative="1" as="geometry" />
        </mxCell>
        <mxCell id="Lt6OHq9H0NEp2cN9ZZlA-77" value="CAD (BU)" style="rounded=0;whiteSpace=wrap;html=1;" parent="1" vertex="1">
          <mxGeometry x="793" y="280" width="120" height="60" as="geometry" />
        </mxCell>
        <mxCell id="Lt6OHq9H0NEp2cN9ZZlA-78" style="edgeStyle=orthogonalEdgeStyle;rounded=0;orthogonalLoop=1;jettySize=auto;html=1;exitX=0;exitY=0.5;exitDx=0;exitDy=0;entryX=0.5;entryY=0;entryDx=0;entryDy=0;" parent="1" source="Lt6OHq9H0NEp2cN9ZZlA-81" target="Lt6OHq9H0NEp2cN9ZZlA-82" edge="1">
          <mxGeometry relative="1" as="geometry" />
        </mxCell>
        <mxCell id="Lt6OHq9H0NEp2cN9ZZlA-79" style="edgeStyle=orthogonalEdgeStyle;rounded=0;orthogonalLoop=1;jettySize=auto;html=1;exitX=0.5;exitY=1;exitDx=0;exitDy=0;entryX=0.5;entryY=0;entryDx=0;entryDy=0;" parent="1" source="Lt6OHq9H0NEp2cN9ZZlA-81" target="Lt6OHq9H0NEp2cN9ZZlA-83" edge="1">
          <mxGeometry relative="1" as="geometry" />
        </mxCell>
        <mxCell id="Lt6OHq9H0NEp2cN9ZZlA-80" style="edgeStyle=orthogonalEdgeStyle;rounded=0;orthogonalLoop=1;jettySize=auto;html=1;exitX=1;exitY=0.5;exitDx=0;exitDy=0;entryX=0.5;entryY=0;entryDx=0;entryDy=0;" parent="1" source="Lt6OHq9H0NEp2cN9ZZlA-81" target="Lt6OHq9H0NEp2cN9ZZlA-84" edge="1">
          <mxGeometry relative="1" as="geometry" />
        </mxCell>
        <mxCell id="Lt6OHq9H0NEp2cN9ZZlA-81" value="Product CAD" style="rounded=0;whiteSpace=wrap;html=1;" parent="1" vertex="1">
          <mxGeometry x="793" y="380" width="120" height="60" as="geometry" />
        </mxCell>
        <mxCell id="Lt6OHq9H0NEp2cN9ZZlA-82" value="Schedules" style="rounded=0;whiteSpace=wrap;html=1;" parent="1" vertex="1">
          <mxGeometry x="638" y="490" width="120" height="60" as="geometry" />
        </mxCell>
        <mxCell id="Lt6OHq9H0NEp2cN9ZZlA-83" value="Crew" style="rounded=0;whiteSpace=wrap;html=1;" parent="1" vertex="1">
          <mxGeometry x="793" y="490" width="120" height="60" as="geometry" />
        </mxCell>
        <mxCell id="Lt6OHq9H0NEp2cN9ZZlA-84" value="GTB" style="rounded=0;whiteSpace=wrap;html=1;" parent="1" vertex="1">
          <mxGeometry x="948" y="490" width="120" height="60" as="geometry" />
        </mxCell>
        <mxCell id="Lt6OHq9H0NEp2cN9ZZlA-85" value="api-dr.org.com/cad/schedule" style="text;html=1;align=center;verticalAlign=middle;whiteSpace=wrap;rounded=0;" parent="1" vertex="1">
          <mxGeometry x="583" y="270" width="210" height="30" as="geometry" />
        </mxCell>
        <mxCell id="Lt6OHq9H0NEp2cN9ZZlA-86" value="api-dr.org.com/cad/crew" style="text;html=1;align=center;verticalAlign=middle;whiteSpace=wrap;rounded=0;" parent="1" vertex="1">
          <mxGeometry x="587" y="296" width="180" height="30" as="geometry" />
        </mxCell>
        <mxCell id="Lt6OHq9H0NEp2cN9ZZlA-87" value="api-dr.org.com/cad/gtb" style="text;html=1;align=center;verticalAlign=middle;whiteSpace=wrap;rounded=0;" parent="1" vertex="1">
          <mxGeometry x="584" y="320" width="180" height="30" as="geometry" />
        </mxCell>
        <mxCell id="Lt6OHq9H0NEp2cN9ZZlA-88" value="api-dr.org.com" style="text;html=1;align=center;verticalAlign=middle;whiteSpace=wrap;rounded=0;" parent="1" vertex="1">
          <mxGeometry x="873" y="120" width="120" height="30" as="geometry" />
        </mxCell>
      </root>
    </mxGraphModel>
  </diagram>
</mxfile>
